<svg width="48" height="48" viewBox="0 0 48 48" fill="none" xmlns="http://www.w3.org/2000/svg">
<path d="M36.7016 15.4357L20.1475 33.2968C19.3853 34.0373 18.3888 34.4341 17.3634 34.4051C16.3381 34.3762 15.3622 33.9238 14.6369 33.1413C13.9117 32.3588 13.4924 31.3058 13.4656 30.1995C13.4388 29.0933 13.8065 28.0181 14.4928 27.1957L36.2918 3.66312C37.4469 2.4152 39.0141 1.71347 40.6487 1.71228C42.2833 1.7111 43.8513 2.41056 45.0079 3.6568C46.1645 4.90304 46.8149 6.59397 46.816 8.3576C46.8171 10.1212 46.1688 11.8131 45.0138 13.061L16.6704 43.6547C15.8886 44.4957 14.9609 45.1623 13.9404 45.6165C12.9198 46.0707 11.8263 46.3036 10.7224 46.3019C8.49277 46.2983 6.35582 45.3393 4.7816 43.6357C3.20738 41.9322 2.32484 39.6237 2.32813 37.2181C2.33143 34.8125 3.22028 32.5069 4.79916 30.8084L27.9914 5.79785" stroke="white" stroke-width="2"/>
</svg>
