<svg xmlns="http://www.w3.org/2000/svg" viewBox="0 0 1200 300" fill="none" stroke="#1a1a1a" stroke-width="0.8" stroke-linecap="round" stroke-linejoin="round">

  <!-- 地面 -->
  <line x1="0" y1="240" x2="1200" y2="240" stroke-width="0.6" opacity="0.3"/>

  <!-- 左の木 -->
  <line x1="60" y1="240" x2="60" y2="170"/>
  <line x1="60" y1="200" x2="40" y2="175"/>
  <line x1="60" y1="190" x2="80" y2="165"/>
  <line x1="60" y1="180" x2="42" y2="158"/>
  <line x1="60" y1="175" x2="78" y2="152"/>
  <line x1="60" y1="170" x2="52" y2="148"/>
  <line x1="60" y1="168" x2="68" y2="145"/>

  <!-- 小屋・左 -->
  <rect x="100" y="190" width="80" height="50"/>
  <polyline points="90,190 140,155 190,190"/>
  <rect x="125" y="210" width="20" height="30"/>
  <rect x="108" y="198" width="15" height="15"/>
  <line x1="100" y1="240" x2="180" y2="240"/>

  <!-- 木・中左 -->
  <line x1="210" y1="240" x2="210" y2="160"/>
  <ellipse cx="210" cy="148" rx="18" ry="22" stroke-width="0.7"/>
  <line x1="210" y1="185" x2="195" y2="172"/>
  <line x1="210" y1="178" x2="225" y2="165"/>

  <!-- メインの建物・中央左 -->
  <rect x="240" y="170" width="120" height="70"/>
  <polyline points="230,170 300,130 370,170"/>
  <rect x="272" y="205" width="25" height="35"/>
  <rect x="248" y="178" width="20" height="18"/>
  <rect x="322" y="178" width="20" height="18"/>
  <line x1="248" y1="187" x2="268" y2="187" stroke-width="0.5"/>
  <line x1="258" y1="178" x2="258" y2="196" stroke-width="0.5"/>
  <line x1="322" y1="187" x2="342" y2="187" stroke-width="0.5"/>
  <line x1="332" y1="178" x2="332" y2="196" stroke-width="0.5"/>

  <!-- 木・中央 -->
  <line x1="390" y1="240" x2="390" y2="155"/>
  <line x1="390" y1="200" x2="368" y2="178"/>
  <line x1="390" y1="192" x2="412" y2="170"/>
  <line x1="390" y1="182" x2="370" y2="162"/>
  <line x1="390" y1="175" x2="408" y2="155"/>
  <line x1="390" y1="165" x2="375" y2="148"/>
  <line x1="390" y1="160" x2="402" y2="145"/>

  <!-- 大きな建物・中央 -->
  <rect x="420" y="155" width="160" height="85"/>
  <polyline points="408,155 500,108 612,155"/>
  <rect x="488" y="200" width="28" height="40"/>
  <rect x="430" y="165" width="22" height="20"/>
  <rect x="465" y="165" width="22" height="20"/>
  <rect x="535" y="165" width="22" height="20"/>
  <rect x="570" y="165" width="22" height="20"/>
  <line x1="430" y1="175" x2="452" y2="175" stroke-width="0.5"/>
  <line x1="441" y1="165" x2="441" y2="185" stroke-width="0.5"/>
  <line x1="465" y1="175" x2="487" y2="175" stroke-width="0.5"/>
  <line x1="476" y1="165" x2="476" y2="185" stroke-width="0.5"/>
  <line x1="535" y1="175" x2="557" y2="175" stroke-width="0.5"/>
  <line x1="546" y1="165" x2="546" y2="185" stroke-width="0.5"/>
  <line x1="570" y1="175" x2="592" y2="175" stroke-width="0.5"/>
  <line x1="581" y1="165" x2="581" y2="185" stroke-width="0.5"/>

  <!-- 木・中央右 -->
  <line x1="635" y1="240" x2="635" y2="162"/>
  <ellipse cx="635" cy="150" rx="20" ry="25" stroke-width="0.7"/>

  <!-- 建物・右中 -->
  <rect x="660" y="182" width="100" height="58"/>
  <polyline points="650,182 710,148 770,182"/>
  <rect x="695" y="212" width="22" height="28"/>
  <rect x="668" y="192" width="18" height="16"/>
  <rect x="734" y="192" width="18" height="16"/>

  <!-- 木・右 -->
  <line x1="785" y1="240" x2="785" y2="165"/>
  <line x1="785" y1="205" x2="765" y2="182"/>
  <line x1="785" y1="195" x2="805" y2="175"/>
  <line x1="785" y1="183" x2="768" y2="165"/>
  <line x1="785" y1="175" x2="800" y2="158"/>

  <!-- 小さな小屋・右 -->
  <rect x="810" y="200" width="70" height="40"/>
  <polyline points="802,200 845,172 882,200"/>
  <rect x="832" y="218" width="16" height="22"/>
  <rect x="816" y="207" width="14" height="13"/>

  <!-- 木・右端 -->
  <line x1="900" y1="240" x2="900" y2="158"/>
  <ellipse cx="900" cy="146" rx="16" ry="20" stroke-width="0.7"/>
  <line x1="900" y1="185" x2="882" y2="170"/>
  <line x1="900" y1="178" x2="916" y2="165"/>

  <!-- 塀・右端 -->
  <rect x="930" y="215" width="180" height="25"/>
  <line x1="950" y1="215" x2="950" y2="205"/>
  <line x1="975" y1="215" x2="975" y2="205"/>
  <line x1="1000" y1="215" x2="1000" y2="205"/>
  <line x1="1025" y1="215" x2="1025" y2="205"/>
  <line x1="1050" y1="215" x2="1050" y2="205"/>
  <line x1="1075" y1="215" x2="1075" y2="205"/>
  <line x1="1100" y1="215" x2="1100" y2="205"/>

  <!-- 木・右端2 -->
  <line x1="1140" y1="240" x2="1140" y2="165"/>
  <line x1="1140" y1="200" x2="1120" y2="180"/>
  <line x1="1140" y1="190" x2="1158" y2="172"/>
  <line x1="1140" y1="178" x2="1122" y2="160"/>
  <line x1="1140" y1="170" x2="1155" y2="152"/>

</svg>
