<svg width="128" height="76" viewBox="0 0 128 76" fill="none" xmlns="http://www.w3.org/2000/svg">
<g clip-path="url(#clip0_665_2)">
<path d="M77.6927 56.9913H60.0052L39.2552 33.0955V56.9913H26.4219V0.657959H39.2552V23.6788L58.5677 0.657959H74.1302L51.4635 27.3663L77.6927 56.9913Z" fill="white"/>
<path d="M93.7161 42.3871C95.8932 42.3871 97.7474 43.1528 99.2786 44.6788C100.805 46.1944 101.57 48.0486 101.57 50.2413C101.57 52.3819 100.805 54.2153 99.2786 55.7413C97.7474 57.2517 95.8932 58.0121 93.7161 58.0121C91.5755 58.0121 89.7422 57.2517 88.2161 55.7413C86.7005 54.2153 85.9453 52.3819 85.9453 50.2413C85.9453 48.0486 86.7005 46.1944 88.2161 44.6788C89.7422 43.1528 91.5755 42.3871 93.7161 42.3871Z" fill="white"/>
<path d="M8.02344 74.3884C8.11719 74.5134 8.16927 74.6592 8.16927 74.8259C8.16927 75.0342 8.09115 75.2009 7.9401 75.3259C7.78385 75.4509 7.61719 75.5134 7.4401 75.5134C7.24219 75.5134 7.07552 75.4301 6.9401 75.2634L3.60677 70.9717L2.0651 72.4301V74.8259C2.0651 75.0238 2.0026 75.1801 1.8776 75.3051C1.7526 75.4301 1.58594 75.4926 1.3776 75.4926C1.17969 75.4926 1.02344 75.4301 0.898438 75.3051C0.773438 75.1801 0.710938 75.0238 0.710938 74.8259V66.5342C0.710938 66.3415 0.773438 66.1801 0.898438 66.0551C1.02344 65.9301 1.1901 65.8676 1.39844 65.8676C1.59115 65.8676 1.7526 65.9301 1.8776 66.0551C2.0026 66.1801 2.0651 66.3415 2.0651 66.5342V70.8051L6.9401 66.0759C7.11719 65.9249 7.29948 65.8467 7.48177 65.8467C7.63281 65.8467 7.77344 65.9197 7.89844 66.0551C8.02344 66.1801 8.08594 66.3259 8.08594 66.4926C8.08594 66.6332 8.01302 66.7738 7.8776 66.9092L4.6276 69.9926L8.02344 74.3884Z" fill="white"/>
<path d="M25.4258 71.8884C25.4258 72.6123 25.2643 73.2582 24.9466 73.8259C24.6237 74.3832 24.1862 74.8259 23.6341 75.1592C23.0768 75.4821 22.4674 75.6384 21.8008 75.6384C21.1341 75.6384 20.5195 75.4821 19.9674 75.1592C19.4102 74.8259 18.9727 74.3832 18.6549 73.8259C18.332 73.2582 18.1758 72.6123 18.1758 71.8884C18.1758 71.1801 18.332 70.5342 18.6549 69.9509C18.9727 69.3676 19.4102 68.9196 19.9674 68.5967C20.5195 68.279 21.1341 68.1176 21.8008 68.1176C22.4674 68.1176 23.0768 68.279 23.6341 68.5967C24.1862 68.9196 24.6237 69.3676 24.9466 69.9509C25.2643 70.5342 25.4258 71.1801 25.4258 71.8884ZM24.1341 71.8884C24.1341 71.3884 24.0299 70.9457 23.8216 70.5551C23.6133 70.1696 23.3268 69.8676 22.9674 69.6592C22.6185 69.4405 22.2279 69.3259 21.8008 69.3259C21.3685 69.3259 20.9727 69.4405 20.6133 69.6592C20.2643 69.8676 19.9883 70.1696 19.7799 70.5551C19.5716 70.9457 19.4674 71.3884 19.4674 71.8884C19.4674 72.378 19.5716 72.8155 19.7799 73.2009C19.9883 73.5759 20.2643 73.878 20.6133 74.0967C20.9727 74.3207 21.3685 74.4301 21.8008 74.4301C22.2279 74.4301 22.6185 74.3207 22.9674 74.0967C23.3268 73.878 23.6133 73.5759 23.8216 73.2009C24.0299 72.8155 24.1341 72.378 24.1341 71.8884Z" fill="white"/>
<path d="M42.2891 65.8676C42.4818 65.8676 42.6432 65.9248 42.7682 66.0342C42.8932 66.1488 42.9557 66.2998 42.9557 66.4926C42.9557 66.6905 42.8932 66.8415 42.7682 66.9509C42.6432 67.0655 42.4818 67.1176 42.2891 67.1176H39.8516V74.8259C39.8516 75.0238 39.7786 75.1801 39.6432 75.3051C39.5182 75.4301 39.3516 75.4926 39.1432 75.4926C38.9453 75.4926 38.7786 75.4301 38.6432 75.3051C38.5182 75.1801 38.4557 75.0238 38.4557 74.8259V67.1176H36.0182C35.8203 67.1176 35.6641 67.0655 35.5391 66.9509C35.4141 66.8415 35.3516 66.6905 35.3516 66.4926C35.3516 66.2998 35.4141 66.1488 35.5391 66.0342C35.6641 65.9248 35.8203 65.8676 36.0182 65.8676H42.2891Z" fill="white"/>
<path d="M59.1615 68.2009C59.3542 68.2009 59.5156 68.2634 59.6406 68.3884C59.7656 68.503 59.8281 68.6592 59.8281 68.8676V74.8259C59.8281 75.0238 59.7656 75.1801 59.6406 75.3051C59.5156 75.4301 59.3542 75.4926 59.1615 75.4926C58.9792 75.4926 58.8281 75.4301 58.7031 75.3051C58.5781 75.1801 58.5156 75.0238 58.5156 74.8259V74.4717C58.276 74.7946 57.9531 75.0707 57.5365 75.3051C57.1302 75.5238 56.6875 75.6384 56.2031 75.6384C55.5885 75.6384 55.026 75.4821 54.5156 75.1592C54 74.8259 53.599 74.378 53.3073 73.8051C53.026 73.2373 52.8906 72.5915 52.8906 71.8676C52.8906 71.1592 53.026 70.5238 53.3073 69.9509C53.599 69.3676 53.9948 68.9196 54.4948 68.5967C55.0052 68.279 55.5625 68.1176 56.1615 68.1176C56.6458 68.1176 57.099 68.2217 57.5156 68.4301C57.9427 68.628 58.276 68.8832 58.5156 69.2009V68.8676C58.5156 68.6748 58.5781 68.5134 58.7031 68.3884C58.8281 68.2634 58.9792 68.2009 59.1615 68.2009ZM56.3698 74.4301C56.7969 74.4301 57.1823 74.3207 57.5156 74.0967C57.849 73.878 58.1042 73.5707 58.2865 73.1801C58.4792 72.7946 58.5781 72.3571 58.5781 71.8676C58.5781 71.3988 58.4792 70.9717 58.2865 70.5967C58.1042 70.2113 57.849 69.904 57.5156 69.6801C57.1823 69.4457 56.7969 69.3259 56.3698 69.3259C55.9375 69.3259 55.5573 69.4405 55.224 69.6592C54.8906 69.8832 54.625 70.1905 54.4323 70.5759C54.2344 70.9509 54.1406 71.3832 54.1406 71.8676C54.1406 72.3571 54.2344 72.7946 54.4323 73.1801C54.625 73.5707 54.8906 73.878 55.224 74.0967C55.5573 74.3207 55.9375 74.4301 56.3698 74.4301Z" fill="white"/>
<path d="M78.9935 68.1592C80.5872 68.1592 81.3893 69.1592 81.3893 71.1592V74.8259C81.3893 75.0238 81.3268 75.1801 81.2018 75.3051C81.0872 75.4301 80.9362 75.4926 80.7435 75.4926C80.5456 75.4926 80.3893 75.4301 80.2643 75.3051C80.1393 75.1801 80.0768 75.0238 80.0768 74.8259V71.1801C80.0768 69.9717 79.5768 69.3676 78.5768 69.3676C78.2122 69.3676 77.8893 69.4509 77.5977 69.6176C77.306 69.7738 77.0768 69.9874 76.9102 70.2634C76.7539 70.5447 76.681 70.8467 76.681 71.1801V74.8259C76.681 75.0238 76.6185 75.1801 76.4935 75.3051C76.3685 75.4301 76.2122 75.4926 76.0352 75.4926C75.8372 75.4926 75.681 75.4301 75.556 75.3051C75.4414 75.1801 75.3893 75.0238 75.3893 74.8259V71.1592C75.3893 70.6176 75.2695 70.1905 75.0352 69.8676C74.8112 69.5342 74.431 69.3676 73.8893 69.3676C73.3477 69.3676 72.8997 69.5447 72.556 69.8884C72.207 70.2374 72.0352 70.6592 72.0352 71.1592V74.8259C72.0352 75.0238 71.9727 75.1801 71.8477 75.3051C71.7227 75.4301 71.5612 75.4926 71.3685 75.4926C71.1706 75.4926 71.0143 75.4301 70.8893 75.3051C70.7747 75.1801 70.7227 75.0238 70.7227 74.8259V68.9509C70.7227 68.7738 70.7852 68.6176 70.9102 68.4926C71.0352 68.3572 71.1862 68.2842 71.3685 68.2842C71.5612 68.2842 71.7227 68.3572 71.8477 68.4926C71.9727 68.6176 72.0352 68.7738 72.0352 68.9509V69.4301C72.2695 69.0707 72.582 68.7738 72.9727 68.5342C73.3737 68.2842 73.8112 68.1592 74.2852 68.1592C75.4206 68.1592 76.1602 68.6697 76.4935 69.6801C76.7018 69.2947 77.0352 68.9457 77.4935 68.6384C77.9622 68.3207 78.4622 68.1592 78.9935 68.1592Z" fill="white"/>
<path d="M98.1224 68.2009C98.3151 68.2009 98.4766 68.2634 98.6016 68.3884C98.7266 68.503 98.7891 68.6592 98.7891 68.8676V74.8259C98.7891 75.0238 98.7266 75.1801 98.6016 75.3051C98.4766 75.4301 98.3151 75.4926 98.1224 75.4926C97.9401 75.4926 97.7891 75.4301 97.6641 75.3051C97.5391 75.1801 97.4766 75.0238 97.4766 74.8259V74.4717C97.237 74.7946 96.9141 75.0707 96.4974 75.3051C96.0911 75.5238 95.6484 75.6384 95.1641 75.6384C94.5495 75.6384 93.987 75.4821 93.4766 75.1592C92.9609 74.8259 92.5599 74.378 92.2682 73.8051C91.987 73.2373 91.8516 72.5915 91.8516 71.8676C91.8516 71.1592 91.987 70.5238 92.2682 69.9509C92.5599 69.3676 92.9557 68.9196 93.4557 68.5967C93.9661 68.279 94.5234 68.1176 95.1224 68.1176C95.6068 68.1176 96.0599 68.2217 96.4766 68.4301C96.9036 68.628 97.237 68.8832 97.4766 69.2009V68.8676C97.4766 68.6748 97.5391 68.5134 97.6641 68.3884C97.7891 68.2634 97.9401 68.2009 98.1224 68.2009ZM95.3307 74.4301C95.7578 74.4301 96.1432 74.3207 96.4766 74.0967C96.8099 73.878 97.0651 73.5707 97.2474 73.1801C97.4401 72.7946 97.5391 72.3571 97.5391 71.8676C97.5391 71.3988 97.4401 70.9717 97.2474 70.5967C97.0651 70.2113 96.8099 69.904 96.4766 69.6801C96.1432 69.4457 95.7578 69.3259 95.3307 69.3259C94.8984 69.3259 94.5182 69.4405 94.1849 69.6592C93.8516 69.8832 93.5859 70.1905 93.3932 70.5759C93.1953 70.9509 93.1016 71.3832 93.1016 71.8676C93.1016 72.3571 93.1953 72.7946 93.3932 73.1801C93.5859 73.5707 93.8516 73.878 94.1849 74.0967C94.5182 74.3207 94.8984 74.4301 95.3307 74.4301Z" fill="white"/>
<path d="M115.56 74.3468C115.695 74.503 115.768 74.6593 115.768 74.8259C115.768 75.0238 115.695 75.1801 115.56 75.3051C115.419 75.4197 115.273 75.4718 115.122 75.4718C114.914 75.4718 114.747 75.4041 114.622 75.2634L111.914 72.3884L111.102 73.1176V74.8259C111.102 75.0238 111.039 75.1801 110.914 75.3051C110.789 75.4301 110.633 75.4926 110.456 75.4926C110.258 75.4926 110.102 75.4301 109.977 75.3051C109.852 75.1801 109.789 75.0238 109.789 74.8259V65.9718C109.789 65.7947 109.852 65.6384 109.977 65.5134C110.102 65.3884 110.258 65.3259 110.456 65.3259C110.633 65.3259 110.789 65.3884 110.914 65.5134C111.039 65.6384 111.102 65.7947 111.102 65.9718V71.5551L114.477 68.4718C114.628 68.3363 114.789 68.2634 114.956 68.2634C115.107 68.2634 115.247 68.3363 115.372 68.4718C115.497 68.5968 115.56 68.7374 115.56 68.8884C115.56 69.0707 115.477 69.2322 115.31 69.3676L112.935 71.4926L115.56 74.3468Z" fill="white"/>
<path d="M127.497 74.8259C127.497 75.0238 127.435 75.1801 127.31 75.3051C127.185 75.4301 127.029 75.4926 126.852 75.4926C126.654 75.4926 126.497 75.4301 126.372 75.3051C126.258 75.1801 126.206 75.0238 126.206 74.8259V68.8884C126.206 68.6957 126.258 68.5343 126.372 68.4093C126.497 68.2843 126.654 68.2218 126.852 68.2218C127.029 68.2218 127.185 68.2843 127.31 68.4093C127.435 68.5343 127.497 68.6957 127.497 68.8884V74.8259ZM126.831 67.3051C126.565 67.3051 126.378 67.2582 126.268 67.1593C126.154 67.0655 126.102 66.9093 126.102 66.7009V66.4926C126.102 66.2738 126.164 66.1176 126.289 66.0343C126.414 65.9405 126.602 65.8884 126.852 65.8884C127.102 65.8884 127.279 65.9405 127.393 66.0343C127.518 66.1332 127.581 66.2843 127.581 66.4926V66.7009C127.581 66.9249 127.518 67.0863 127.393 67.1801C127.279 67.2634 127.091 67.3051 126.831 67.3051Z" fill="white"/>
</g>
<defs>
<clipPath id="clip0_665_2">
<rect width="128" height="76" fill="white"/>
</clipPath>
</defs>
</svg>
